<?xml version="1.0" encoding="UTF-8"?><svg id="Layer_1" xmlns="http://www.w3.org/2000/svg" xmlns:xlink="http://www.w3.org/1999/xlink" viewBox="0 0 724.4 232.06"><defs><style>.cls-1,.cls-2,.cls-3,.cls-4{fill:none;}.cls-5{clip-path:url(#clippath);}.cls-6{fill:#89c40f;}.cls-7{fill:#5203ce;}.cls-2{stroke:#89c40f;stroke-width:10px;}.cls-2,.cls-3{stroke-linecap:round;}.cls-3,.cls-4{stroke:#5203ce;stroke-width:12px;}</style><clipPath id="clippath"><rect class="cls-1" width="724.4" height="232.06"/></clipPath></defs><g class="cls-5"><g><path class="cls-2" d="M85.39,152.2c-1.93-.75-3.67-1.91-5.1-3.4-1.43-1.49-2.52-3.28-3.2-5.24-.71-2.15-.54-4.91,.51-8.21,1.24-3.56,2.92-6.95,5-10.09,2.46-3.82,5.18-7.47,8.15-10.91,.17-.19,.38-.35,.61-.45,.23-.11,.49-.16,.74-.16s.51,.06,.74,.16c.23,.11,.44,.26,.61,.45,2.97,3.44,5.69,7.09,8.15,10.91,2.08,3.14,3.76,6.53,5,10.09,1,3.3,1.22,6.06,.51,8.21-.67,1.95-1.76,3.73-3.19,5.22-1.43,1.49-3.16,2.65-5.08,3.41"/><path class="cls-4" d="M68,109.54c6.64-10.3,14.1-20.06,22.3-29.17,.26-.29,.57-.52,.92-.68,.35-.16,.73-.24,1.12-.24s.77,.08,1.12,.24c.35,.16,.67,.39,.92,.68,8.2,9.11,15.66,18.87,22.3,29.17,4.81,7.62,9,15.63,11.38,23.26,2.38,7.63,3,14.6,1.12,20.3-2.57,7.82-7.9,14.43-15,18.6-11.88,7.25-31.73,7.25-43.61,0-7.1-4.16-12.44-10.78-15-18.6-1.87-5.7-1.32-12.62,1.11-20.3,2.43-7.68,6.48-15.64,11.32-23.26Z"/><path class="cls-3" d="M173.9,124.6c5.42,17.22,6.79,33.14,2.44,46.49-8.58,26.33-28.05,40.86-46.36,49-18,8-57,8-75,0-18.32-8.11-37.79-22.65-46.37-49-4.35-13.35-3-29.27,2.44-46.49,5.44-17.22,14.65-35,25.26-51.95C54.41,43.75,75.2,19.64,87.11,6"/><path class="cls-3" d="M134.8,52.05c5.85,8,8.3,11.76,13.84,20.6,4,6.33,7.75,12.79,11.2,19.29,1.39,2.61,2.72,5.22,4,7.85"/><path class="cls-3" d="M134,51.56l-16,11.32c-.47,.34-.86,.77-1.17,1.27-.3,.5-.5,1.05-.58,1.62s-.05,1.16,.09,1.72c.14,.56,.4,1.09,.75,1.55,5.15,6.77,11.23,15,15.78,22.22,7.64,12.18,14.29,25,18.18,37.39s4.88,23.85,1.75,33.46c-6.18,19-20.18,29.41-33.37,35.25-13,5.75-41,5.75-54,0-13.18-5.84-27.19-16.3-33.37-35.25-3.06-9.61-2.06-21.1,1.79-33.46,3.85-12.36,10.54-25.21,18.15-37.39,10.49-16.73,23.56-32.57,32.64-43,1.76-2.01,2.73-4.58,2.73-7.25l-.18-34.92"/><path class="cls-7" d="M235.36,137.21v-32.41h-16.48v-21.73h16.48v-22.81h25.71v22.81h31.68v21.73h-31.68v31.68c0,10,6,15.75,15.39,15.75,5.25,0,12-1.63,16.29-4.34v23c-4.52,2.9-12.31,4.35-18.65,4.35-25.89-.01-38.74-15.58-38.74-38.03Z"/><path class="cls-7" d="M307.6,190.8l21.18-11.59c4,7.79,12,13.76,23.54,13.76,15.39,0,24.26-11.22,24.26-27.88v-2.54c-4.89,7.25-12.85,11.23-23.9,11.23-29.15,0-41.82-18.65-41.82-45.26v-45.45h25.35v44.54c0,13,7.06,21.91,19.73,21.91,11.59,0,20.28-9.6,20.28-22.45v-44h26.07v81.66c0,31.32-20.09,51.78-49.61,51.78-21.36,0-36.93-9.05-45.08-25.71Z"/><path class="cls-7" d="M581.18,125.8v46.89h-25.71v-42.55c0-13.76-6-25.34-20.1-25.34s-19.92,11.4-19.92,25v42.91h-25.71v-42.71c0-13.76-6-25.16-19.91-25.16s-19.92,11.58-19.92,25.16v42.73h-25.71v-46.93c0-25,14.67-46,43.64-46,17.2,0,29.69,7.61,34.94,19.92,5.61-12.31,18.29-19.92,34.4-19.92,29.15,0,44,21.01,44,46Z"/><path class="cls-7" d="M596.93,155l19-10.68c3.81,7.24,9.78,10.32,18.83,10.32,8.33,0,13.58-3.26,13.58-8.51,0-14.49-49.24-2-49.24-36.58,0-16.11,14.12-28.78,36.21-28.78,19.19,0,30.78,9,36.21,19.37l-19,10.68c-2.9-6.52-9.42-9.59-16.66-9.59-6.34,0-11,3.07-11,7.78,0,14.49,49.24,2.9,49.24,36.57,0,18.11-17.56,29.7-38,29.7-18.71-.05-31.74-6.93-39.17-20.28Z"/><path class="cls-6" d="M692.71,158.75c.02-3.13,.96-6.18,2.7-8.77,1.75-2.59,4.22-4.61,7.11-5.8,2.89-1.19,6.07-1.5,9.14-.88,3.07,.61,5.88,2.12,8.1,4.33,2.21,2.21,3.72,5.03,4.34,8.09,.62,3.07,.31,6.25-.88,9.14-1.19,2.89-3.21,5.37-5.8,7.12-2.59,1.75-5.65,2.69-8.77,2.71-4.22-.02-8.27-1.7-11.25-4.68-2.99-2.98-4.67-7.03-4.69-11.25Z"/></g></g></svg>